<svg width="24" height="14" viewBox="0 0 24 14" fill="none" xmlns="http://www.w3.org/2000/svg">
<path d="M24 6.99998C24 6.73477 23.8946 6.48041 23.7071 6.29288C23.5196 6.10534 23.2652 5.99998 23 5.99998L3.414 5.99998L7.706 1.70798C7.88816 1.51938 7.98895 1.26678 7.98667 1.00458C7.9844 0.742383 7.87923 0.49157 7.69382 0.306161C7.50841 0.120753 7.2576 0.0155854 6.9954 0.013307C6.73321 0.0110287 6.4806 0.111823 6.292 0.293981L0.292 6.29398C0.199469 6.38598 0.126034 6.49536 0.0759227 6.61583C0.0258109 6.73631 1.01593e-05 6.8655 6.11147e-07 6.99598L6.10798e-07 6.99998C5.99433e-07 7.12998 0.0259997 7.25998 0.0779997 7.38198C0.127841 7.50321 0.201262 7.61334 0.294001 7.70598L6.294 13.706C6.4826 13.8881 6.7352 13.9889 6.9974 13.9867C7.2596 13.9844 7.51041 13.8792 7.69582 13.6938C7.88123 13.5084 7.98639 13.2576 7.98867 12.9954C7.99095 12.7332 7.89016 12.4806 7.708 12.292L3.414 7.99998L23 7.99998C23.2652 7.99998 23.5196 7.89463 23.7071 7.70709C23.8946 7.51955 24 7.2652 24 6.99998Z" fill="black"/>
</svg>
