<svg width="134" height="50" viewBox="0 0 134 50" fill="none" xmlns="http://www.w3.org/2000/svg">
<path fill-rule="evenodd" clip-rule="evenodd" d="M57.315 10.656C64.7082 10.656 71.2536 14.888 74.6187 21.0229C73.9586 22.0528 72.9137 22.7272 71.6437 22.7272H71.0439C68.425 17.9653 63.3842 14.6798 57.315 14.6798C51.2459 14.6798 46.205 17.9653 43.5861 22.7272H43.434C42.0082 22.7272 40.8661 21.8772 40.2337 20.6283C43.6594 14.7073 50.0815 10.656 57.315 10.656ZM76.2905 25.0977C75.2145 25.9462 73.9372 26.5135 72.5668 26.6913C72.8423 27.8624 72.9871 29.0808 72.9871 30.3281C72.9871 38.8229 66.2705 45.9764 57.315 45.9764C48.8073 45.9764 41.643 38.8229 41.643 30.3281C41.643 29.0808 41.7878 27.8624 42.0632 26.6914C40.6929 26.5135 39.4155 25.9463 38.3395 25.0978C37.8666 26.7679 37.613 28.5227 37.613 30.3281C37.613 41.0583 46.5685 50.0002 57.315 50.0002C68.0616 50.0002 77.017 41.0583 77.017 30.3281C77.017 28.5227 76.7635 26.7678 76.2905 25.0977ZM4.02995 15.5738H9.851V49.1058H13.881V11.55H0V49.1058H4.02995V15.5738ZM20.5975 11.55H17.9109V49.1058H22.3886V41.9523C30.0007 41.0581 35.8218 34.3517 35.8218 26.7511C35.8218 18.2564 28.6574 11.55 20.5975 11.55ZM31.7918 26.7511C31.7918 32.1162 27.7619 37.4814 21.9408 37.9284V15.5738C27.7619 16.0209 31.7918 20.9389 31.7918 26.7511ZM80.5991 11.55H83.2857C91.3456 11.55 98.51 18.2564 98.51 26.7511C98.51 34.3517 92.6889 41.0581 85.0768 41.9523V49.1058H80.5991V11.55ZM84.629 37.9284C90.0023 37.4814 94.0322 32.5633 94.0322 26.7511C94.48 20.9389 90.4501 16.0209 84.629 15.5738V37.9284ZM113.734 49.1058L109.256 11.55H103.435L98.9576 49.1058H102.988L103.435 45.0819H109.256L109.704 49.1058H113.734ZM108.809 41.0581H103.883L106.122 16.0209L108.809 41.0581ZM116.869 11.55H129.406V15.5738H120.899V21.386C128.063 21.8331 133.884 28.0924 133.884 35.2459C133.884 42.8465 127.615 49.1058 119.555 49.1058H116.869V11.55ZM120.899 25.4098V45.529C125.824 45.0819 129.854 40.611 129.854 35.693C129.854 30.775 125.824 25.4098 120.899 25.4098Z" fill="#4088DD"/>
<path fill-rule="evenodd" clip-rule="evenodd" d="M58.3587 0H57.4631H55.672C53.881 0.447093 52.5376 1.78837 52.5376 3.57674V7.60058H50.7465V5.81221C50.7465 4.91802 49.851 4.02384 48.9555 4.02384C48.5077 4.02384 48.0599 4.02384 47.6121 4.47093C44.9255 7.15349 43.5822 10.7302 43.5822 14.307V16.0953C41.7911 16.0953 40 17.8837 40 19.6721V20.1192C40.4478 21.9076 41.7911 23.2488 43.5822 23.2488H71.7919C73.583 23.2488 74.9263 21.9076 75.374 20.1192C75.374 18.3308 74.0307 16.5424 72.2396 16.0953H71.7919V14.7541C71.7919 10.7302 70.4485 7.15349 67.7619 4.47093C67.3141 4.02384 66.8664 4.02384 66.4186 4.02384C65.523 4.02384 64.6275 4.91802 64.6275 5.81221V7.15349H62.8364V3.57674C62.8364 1.78837 61.9409 0.447093 59.702 0H58.3587Z" fill="#6FE1B8"/>
</svg>
