<svg width="6" height="66" viewBox="0 0 6 66" fill="none" xmlns="http://www.w3.org/2000/svg">
<path fill-rule="evenodd" clip-rule="evenodd" d="M0 4.5C0 2.01472 -2.01472 0 -4.5 0C-6.98528 0 -9 2.01472 -9 4.5V16.9887C-9 22.4873 -12.8286 27.7101 -12.9955 33.2062C-12.9985 33.3038 -13 33.4017 -13 33.5C-13 33.713 -12.993 33.9243 -12.9792 34.1338C-12.6318 39.4075 -9 44.3858 -9 49.6709V61.5C-9 63.9853 -6.98528 66 -4.5 66C-2.01472 66 0 63.9853 0 61.5V51.907C0 46.1287 4.77514 40.9375 5.8377 35.2578C5.94427 34.6881 6 34.1006 6 33.5C6 33.0386 5.96711 32.585 5.90355 32.1412C5.04975 26.1797 0 20.7109 0 14.6886V4.5Z" fill="white"/>
</svg>
