<svg width="24" height="24" viewBox="0 0 24 24" fill="none" xmlns="http://www.w3.org/2000/svg">
<path d="M12 18C11.7348 18 11.4804 17.8946 11.2929 17.7071C11.1054 17.5196 11 17.2652 11 17V7C11 6.73478 11.1054 6.48043 11.2929 6.29289C11.4804 6.10536 11.7348 6 12 6C12.2652 6 12.5196 6.10536 12.7071 6.29289C12.8946 6.48043 13 6.73478 13 7V17C13 17.2652 12.8946 17.5196 12.7071 17.7071C12.5196 17.8946 12.2652 18 12 18Z" fill="#C4C4C4"/>
<path d="M11.9994 17.9994C11.8681 17.9996 11.738 17.9738 11.6167 17.9235C11.4954 17.8732 11.3852 17.7994 11.2924 17.7064L6.29243 12.7064C6.11027 12.5178 6.00948 12.2652 6.01176 12.003C6.01403 11.7408 6.1192 11.49 6.30461 11.3046C6.49002 11.1192 6.74083 11.014 7.00303 11.0118C7.26523 11.0095 7.51783 11.1103 7.70643 11.2924L11.9994 15.5854L16.2924 11.2924C16.481 11.1103 16.7336 11.0095 16.9958 11.0118C17.258 11.014 17.5088 11.1192 17.6942 11.3046C17.8797 11.49 17.9848 11.7408 17.9871 12.003C17.9894 12.2652 17.8886 12.5178 17.7064 12.7064L12.7064 17.7064C12.6137 17.7994 12.5035 17.8732 12.3822 17.9235C12.2608 17.9738 12.1308 17.9996 11.9994 17.9994V17.9994Z" fill="#C4C4C4"/>
</svg>
