<svg width="18" height="18" viewBox="0 0 18 18" fill="none" xmlns="http://www.w3.org/2000/svg">
<g clip-path="url(#clip0_1421_2164)">
<path d="M14.25 8.25094H5.355L8.0775 4.98094C8.2048 4.82778 8.26605 4.63032 8.24777 4.432C8.22948 4.23368 8.13316 4.05074 7.98 3.92344C7.82684 3.79614 7.62938 3.73489 7.43106 3.75317C7.23274 3.77146 7.0498 3.86778 6.9225 4.02094L3.1725 8.52094C3.14727 8.55673 3.12471 8.59433 3.105 8.63344C3.105 8.67094 3.105 8.69344 3.0525 8.73094C3.01851 8.81693 3.00071 8.90847 3 9.00094C3.00071 9.09341 3.01851 9.18494 3.0525 9.27094C3.0525 9.30844 3.0525 9.33094 3.105 9.36844C3.12471 9.40754 3.14727 9.44515 3.1725 9.48094L6.9225 13.9809C6.99302 14.0656 7.08132 14.1337 7.18114 14.1804C7.28095 14.227 7.38982 14.2511 7.5 14.2509C7.67524 14.2513 7.84507 14.1903 7.98 14.0784C8.05594 14.0155 8.11872 13.9382 8.16473 13.8509C8.21075 13.7636 8.2391 13.6682 8.24815 13.5699C8.25721 13.4717 8.2468 13.3726 8.21751 13.2784C8.18823 13.1842 8.14065 13.0967 8.0775 13.0209L5.355 9.75094H14.25C14.4489 9.75094 14.6397 9.67192 14.7803 9.53127C14.921 9.39062 15 9.19985 15 9.00094C15 8.80203 14.921 8.61126 14.7803 8.47061C14.6397 8.32996 14.4489 8.25094 14.25 8.25094Z" fill="#858585"/>
</g>
<defs>
<clipPath id="clip0_1421_2164">
<rect width="18" height="18" fill="white"/>
</clipPath>
</defs>
</svg>
