<svg width="18" height="18" viewBox="0 0 18 18" fill="none" xmlns="http://www.w3.org/2000/svg">
<g clip-path="url(#clip0_1_9165)">
<path d="M9 16.3125C13.0386 16.3125 16.3125 13.0386 16.3125 9C16.3125 4.96142 13.0386 1.6875 9 1.6875C4.96142 1.6875 1.6875 4.96142 1.6875 9C1.6875 13.0386 4.96142 16.3125 9 16.3125Z" fill="#6FE1B8"/>
<path fill-rule="evenodd" clip-rule="evenodd" d="M8.03568 10.655L11.9772 6.71354C12.1968 6.49392 12.5531 6.49392 12.7727 6.71354C12.9923 6.93316 12.9923 7.28945 12.7727 7.50907L8.43345 11.8483C8.21383 12.068 7.85753 12.068 7.63792 11.8483L5.22721 9.43764C5.0076 9.21802 5.0076 8.86172 5.22721 8.64211C5.44683 8.42249 5.80313 8.42249 6.02274 8.64211L8.03568 10.655Z" fill="white"/>
</g>
<defs>
<clipPath id="clip0_1_9165">
<rect width="18" height="18" fill="white"/>
</clipPath>
</defs>
</svg>
