<svg width="16" height="16" viewBox="0 0 16 16" fill="none" xmlns="http://www.w3.org/2000/svg">
<path d="M13.0478 14.9568C12.5146 15.3366 9.09371 12.9293 8.43853 12.9241C7.78335 12.9188 4.32395 15.2706 3.79702 14.8824C3.2701 14.4941 4.50887 10.506 4.31146 9.88306C4.11404 9.26012 0.801874 6.70609 1.00935 6.08639C1.21687 5.46669 5.40337 5.40913 5.93651 5.02938C6.46966 4.64968 7.88206 0.719369 8.53729 0.724615C9.19242 0.729905 10.541 4.68242 11.0679 5.0707C11.5949 5.45893 15.7799 5.5839 15.9774 6.20685C16.1748 6.82979 12.8218 9.33017 12.6143 9.94987C12.4068 10.5696 13.5809 14.5771 13.0478 14.9568Z" fill="#F8B84E"/>
</svg>
