<svg width="16" height="16" viewBox="0 0 16 16" fill="none" xmlns="http://www.w3.org/2000/svg">
<path d="M1.77954 5.27429L3.07812 6.02429C3.19176 6.0904 3.32091 6.12515 3.45237 6.125C3.61754 6.12522 3.77815 6.0709 3.90928 5.97048C4.04041 5.87005 4.13471 5.72915 4.17755 5.56963C4.22038 5.41012 4.20935 5.24093 4.14616 5.08833C4.08298 4.93573 3.97118 4.80826 3.82812 4.72571L2.52954 3.97571C2.44426 3.92611 2.35002 3.89384 2.25225 3.88072C2.15447 3.86761 2.05506 3.87393 1.95973 3.8993C1.86439 3.92468 1.775 3.96862 1.69668 4.02861C1.61836 4.08859 1.55264 4.16345 1.5033 4.24888C1.45396 4.33431 1.42196 4.42863 1.40915 4.52645C1.39633 4.62427 1.40294 4.72366 1.4286 4.81891C1.45426 4.91417 1.49847 5.00343 1.55869 5.08157C1.61891 5.15971 1.69396 5.2252 1.77954 5.27429ZM3.5 8C3.50003 7.9015 3.48064 7.80396 3.44296 7.71296C3.40528 7.62195 3.35004 7.53926 3.28039 7.46961C3.21074 7.39996 3.12805 7.34472 3.03704 7.30704C2.94604 7.26935 2.8485 7.24997 2.75 7.25H1.25C1.05109 7.25 0.860322 7.32902 0.71967 7.46967C0.579018 7.61032 0.5 7.80109 0.5 8C0.5 8.19891 0.579018 8.38968 0.71967 8.53033C0.860322 8.67098 1.05109 8.75 1.25 8.75H2.75C2.8485 8.75002 2.94604 8.73064 3.03704 8.69296C3.12805 8.65528 3.21074 8.60003 3.28039 8.53039C3.35004 8.46074 3.40528 8.37805 3.44296 8.28704C3.48064 8.19604 3.50003 8.0985 3.5 8ZM4.10278 10.25C4.0536 10.1646 3.98805 10.0898 3.9099 10.0298C3.83175 9.96977 3.74253 9.92577 3.64735 9.90029C3.55217 9.87481 3.4529 9.86836 3.35523 9.8813C3.25755 9.89424 3.16339 9.92632 3.07812 9.97571L1.77954 10.7257C1.69396 10.7748 1.61891 10.8403 1.55869 10.9184C1.49847 10.9966 1.45426 11.0858 1.4286 11.1811C1.40294 11.2763 1.39633 11.3757 1.40915 11.4735C1.42196 11.5714 1.45396 11.6657 1.5033 11.7511C1.55264 11.8366 1.61836 11.9114 1.69668 11.9714C1.775 12.0314 1.86439 12.0753 1.95973 12.1007C2.05506 12.1261 2.15447 12.1324 2.25225 12.1193C2.35002 12.1062 2.44426 12.0739 2.52954 12.0243L3.82812 11.2743C3.91345 11.2251 3.98825 11.1596 4.04824 11.0815C4.10823 11.0034 4.15224 10.9142 4.17775 10.8191C4.20326 10.7239 4.20976 10.6247 4.1969 10.5271C4.18404 10.4294 4.15206 10.3353 4.10278 10.25ZM10.25 4.10315C10.4223 4.20252 10.627 4.22941 10.8192 4.17791C11.0113 4.12641 11.1751 4.00073 11.2747 3.8285L12.0247 2.52918C12.074 2.44387 12.106 2.34967 12.1189 2.25198C12.1318 2.15429 12.1253 2.05501 12.0998 1.95983C12.0743 1.86464 12.0303 1.77541 11.9703 1.69723C11.9103 1.61905 11.8355 1.55346 11.7502 1.5042C11.6648 1.45493 11.5706 1.42297 11.4729 1.41013C11.3752 1.39729 11.276 1.40382 11.1808 1.42936C11.0856 1.4549 10.9964 1.49894 10.9183 1.55896C10.8401 1.61898 10.7746 1.69382 10.7253 1.77918L9.97534 3.0785C9.92607 3.16381 9.89409 3.25799 9.88122 3.35566C9.86836 3.45333 9.87487 3.55258 9.90038 3.64773C9.92588 3.74288 9.96989 3.83208 10.0299 3.91022C10.0899 3.98837 10.1647 4.05392 10.25 4.10315ZM11.8972 5.75C11.9631 5.86414 12.0579 5.95889 12.1721 6.02473C12.2863 6.09056 12.4158 6.12514 12.5476 6.125C12.6791 6.12515 12.8082 6.0904 12.9219 6.02429L14.2204 5.27429C14.306 5.2252 14.3811 5.15971 14.4413 5.08157C14.5015 5.00343 14.5457 4.91417 14.5714 4.81891C14.597 4.72366 14.6037 4.62427 14.5908 4.52645C14.578 4.42863 14.546 4.33431 14.4967 4.24888C14.4473 4.16345 14.3816 4.08859 14.3033 4.02861C14.225 3.96862 14.1356 3.92468 14.0403 3.8993C13.9449 3.87393 13.8455 3.86761 13.7477 3.88072C13.65 3.89384 13.5557 3.92611 13.4704 3.97571L12.1719 4.72571C12.0865 4.77489 12.0117 4.84042 11.9517 4.91853C11.8918 4.99664 11.8477 5.0858 11.8222 5.18093C11.7967 5.27606 11.7902 5.37528 11.8031 5.47293C11.816 5.57057 11.8479 5.66472 11.8972 5.75ZM14.2205 10.7257L12.9219 9.97571C12.8366 9.92611 12.7424 9.89383 12.6446 9.88072C12.5468 9.86761 12.4474 9.87393 12.3521 9.8993C12.2568 9.92468 12.1674 9.96862 12.0891 10.0286C12.0107 10.0886 11.945 10.1634 11.8957 10.2489C11.8463 10.3343 11.8143 10.4286 11.8015 10.5265C11.7887 10.6243 11.7953 10.7237 11.821 10.8189C11.8466 10.9142 11.8908 11.0034 11.9511 11.0816C12.0113 11.1597 12.0863 11.2252 12.1719 11.2743L13.4705 12.0243C13.5841 12.0904 13.7133 12.1252 13.8447 12.125C14.0099 12.1252 14.1705 12.0709 14.3017 11.9705C14.4328 11.8701 14.5271 11.7291 14.5699 11.5696C14.6128 11.4101 14.6017 11.2409 14.5385 11.0883C14.4754 10.9357 14.3636 10.8083 14.2205 10.7257ZM11.2747 12.1715C11.2254 12.0861 11.1599 12.0113 11.0817 11.9513C11.0036 11.8912 10.9144 11.8472 10.8192 11.8217C10.724 11.7961 10.6248 11.7896 10.5271 11.8024C10.4294 11.8153 10.3351 11.8472 10.2498 11.8965C10.1645 11.9458 10.0897 12.0114 10.0297 12.0895C9.9697 12.1677 9.9257 12.257 9.90022 12.3521C9.87473 12.4473 9.86824 12.5466 9.88113 12.6443C9.89402 12.742 9.92604 12.8362 9.97534 12.9215L10.7253 14.2208C10.7746 14.3062 10.8401 14.381 10.9183 14.441C10.9964 14.5011 11.0856 14.5451 11.1808 14.5706C11.276 14.5962 11.3752 14.6027 11.4729 14.5899C11.5706 14.577 11.6648 14.5451 11.7502 14.4958C11.8355 14.4465 11.9103 14.3809 11.9703 14.3028C12.0303 14.2246 12.0743 14.1354 12.0998 14.0402C12.1253 13.945 12.1318 13.8457 12.1189 13.748C12.106 13.6503 12.074 13.5561 12.0247 13.4708L11.2747 12.1715ZM5.75 11.8968C5.6647 11.8475 5.57052 11.8155 5.47284 11.8026C5.37516 11.7897 5.2759 11.7962 5.18073 11.8218C5.08556 11.8473 4.99636 11.8913 4.91822 11.9513C4.84008 12.0113 4.77454 12.0861 4.72534 12.1715L3.97534 13.4708C3.87601 13.6431 3.84916 13.8478 3.9007 14.0399C3.95224 14.232 4.07795 14.3957 4.25019 14.4951C4.42243 14.5946 4.62711 14.6215 4.81922 14.5701C5.01133 14.5186 5.17515 14.393 5.27466 14.2208L6.02466 12.9215C6.07393 12.8362 6.10591 12.742 6.11878 12.6443C6.13164 12.5467 6.12513 12.4474 6.09963 12.3523C6.07412 12.2571 6.03011 12.1679 5.97012 12.0898C5.91013 12.0116 5.83533 11.9461 5.75 11.8968ZM14.75 7.25H13.25C13.0511 7.25 12.8603 7.32902 12.7197 7.46967C12.579 7.61032 12.5 7.80109 12.5 8C12.5 8.19891 12.579 8.38968 12.7197 8.53033C12.8603 8.67098 13.0511 8.75 13.25 8.75H14.75C14.9489 8.75 15.1397 8.67098 15.2803 8.53033C15.421 8.38968 15.5 8.19891 15.5 8C15.5 7.80109 15.421 7.61032 15.2803 7.46967C15.1397 7.32902 14.9489 7.25 14.75 7.25ZM8 0.5C7.9015 0.499974 7.80396 0.519356 7.71296 0.557038C7.62195 0.59472 7.53926 0.649964 7.46961 0.719613C7.39996 0.789262 7.34472 0.871951 7.30704 0.962957C7.26935 1.05396 7.24997 1.1515 7.25 1.25V2.75C7.25 2.94891 7.32902 3.13968 7.46967 3.28033C7.61032 3.42098 7.80109 3.5 8 3.5C8.19891 3.5 8.38968 3.42098 8.53033 3.28033C8.67098 3.13968 8.75 2.94891 8.75 2.75V1.25C8.75002 1.1515 8.73064 1.05396 8.69296 0.962957C8.65528 0.871951 8.60003 0.789262 8.53039 0.719613C8.46074 0.649964 8.37805 0.59472 8.28704 0.557038C8.19604 0.519356 8.0985 0.499974 8 0.5ZM8 12.5C7.9015 12.5 7.80396 12.5194 7.71296 12.557C7.62195 12.5947 7.53926 12.65 7.46961 12.7196C7.39996 12.7893 7.34472 12.8719 7.30704 12.963C7.26935 13.054 7.24997 13.1515 7.25 13.25V14.75C7.25 14.9489 7.32902 15.1397 7.46967 15.2803C7.61032 15.421 7.80109 15.5 8 15.5C8.19891 15.5 8.38968 15.421 8.53033 15.2803C8.67098 15.1397 8.75 14.9489 8.75 14.75V13.25C8.75002 13.1515 8.73064 13.054 8.69296 12.963C8.65528 12.8719 8.60003 12.7893 8.53039 12.7196C8.46074 12.65 8.37805 12.5947 8.28704 12.557C8.19604 12.5194 8.0985 12.5 8 12.5Z" fill="#F7A928"/>
</svg>
