<svg width="18" height="18" viewBox="0 0 18 18" fill="none" xmlns="http://www.w3.org/2000/svg">
<path d="M9.7423 0.878897L11.8766 5.20303C11.936 5.32336 12.0238 5.42743 12.1324 5.5063C12.2409 5.58516 12.367 5.63644 12.4998 5.65572L17.2717 6.34924C17.4245 6.37144 17.5681 6.43597 17.6862 6.53553C17.8043 6.6351 17.8922 6.76572 17.9399 6.91263C17.9876 7.05954 17.9932 7.21686 17.9562 7.36681C17.9191 7.51675 17.8408 7.65334 17.7302 7.7611L14.2766 11.1269C14.0813 11.3172 13.9928 11.5912 14.0383 11.8593L14.8535 16.6121C14.8795 16.7643 14.8625 16.9208 14.8043 17.0638C14.7461 17.2068 14.6491 17.3307 14.5241 17.4215C14.3992 17.5122 14.2514 17.5662 14.0974 17.5773C13.9434 17.5885 13.7893 17.5563 13.6526 17.4844L9.38395 15.24C9.26511 15.1777 9.13291 15.1451 8.99871 15.1451C8.86451 15.1451 8.73231 15.1777 8.61347 15.24L4.34478 17.4844C4.2081 17.5563 4.05405 17.5885 3.90004 17.5773C3.74603 17.5662 3.5982 17.5122 3.47327 17.4215C3.34834 17.3307 3.25129 17.2068 3.19309 17.0638C3.1349 16.9208 3.11787 16.7643 3.14395 16.6121L3.95912 11.8593C3.98182 11.7271 3.97198 11.5913 3.93045 11.4637C3.88892 11.336 3.81696 11.2205 3.72078 11.1269L0.267261 7.7611C0.15661 7.65334 0.0783261 7.51675 0.0412655 7.36681C0.00420484 7.21686 0.00984654 7.05954 0.0575524 6.91263C0.105258 6.76572 0.193124 6.6351 0.31121 6.53553C0.429296 6.43597 0.572888 6.37144 0.725743 6.34924L5.49761 5.65572C5.63039 5.63644 5.7565 5.58516 5.86507 5.5063C5.97363 5.42743 6.06139 5.32336 6.12078 5.20303L8.25512 0.878897C8.56133 0.264 9.43857 0.264 9.7423 0.878897Z" fill="#546EDB"/>
</svg>
