<svg width="18" height="18" viewBox="0 0 18 18" fill="none" xmlns="http://www.w3.org/2000/svg">
<path d="M4.83317 10.6666H6.49984C6.72085 10.6666 6.93281 10.5788 7.08909 10.4225C7.24537 10.2663 7.33317 10.0543 7.33317 9.83329C7.33317 9.61228 7.24537 9.40032 7.08909 9.24404C6.93281 9.08776 6.72085 8.99996 6.49984 8.99996H4.83317C4.61216 8.99996 4.40019 9.08776 4.24391 9.24404C4.08763 9.40032 3.99984 9.61228 3.99984 9.83329C3.99984 10.0543 4.08763 10.2663 4.24391 10.4225C4.40019 10.5788 4.61216 10.6666 4.83317 10.6666ZM9.83317 12.3333H4.83317C4.61216 12.3333 4.40019 12.4211 4.24391 12.5774C4.08763 12.7336 3.99984 12.9456 3.99984 13.1666C3.99984 13.3876 4.08763 13.5996 4.24391 13.7559C4.40019 13.9122 4.61216 14 4.83317 14H9.83317C10.0542 14 10.2661 13.9122 10.4224 13.7559C10.5787 13.5996 10.6665 13.3876 10.6665 13.1666C10.6665 12.9456 10.5787 12.7336 10.4224 12.5774C10.2661 12.4211 10.0542 12.3333 9.83317 12.3333ZM14.8332 0.666626H3.1665C2.50346 0.666626 1.86758 0.930018 1.39874 1.39886C0.929896 1.8677 0.666504 2.50358 0.666504 3.16663V14.8333C0.666504 15.4963 0.929896 16.1322 1.39874 16.6011C1.86758 17.0699 2.50346 17.3333 3.1665 17.3333H14.8332C15.4962 17.3333 16.1321 17.0699 16.6009 16.6011C17.0698 16.1322 17.3332 15.4963 17.3332 14.8333V3.16663C17.3332 2.50358 17.0698 1.8677 16.6009 1.39886C16.1321 0.930018 15.4962 0.666626 14.8332 0.666626ZM10.6665 2.33329V5.07496L9.40817 4.37496C9.28149 4.30182 9.13778 4.26331 8.9915 4.26331C8.84522 4.26331 8.70152 4.30182 8.57484 4.37496L7.33317 5.07496V2.33329H10.6665ZM15.6665 14.8333C15.6665 15.0543 15.5787 15.2663 15.4224 15.4225C15.2661 15.5788 15.0542 15.6666 14.8332 15.6666H3.1665C2.94549 15.6666 2.73353 15.5788 2.57725 15.4225C2.42097 15.2663 2.33317 15.0543 2.33317 14.8333V3.16663C2.33317 2.94561 2.42097 2.73365 2.57725 2.57737C2.73353 2.42109 2.94549 2.33329 3.1665 2.33329H5.6665V6.49996C5.66738 6.64539 5.7063 6.78805 5.7794 6.91378C5.85249 7.03951 5.95722 7.14391 6.08317 7.21662C6.20985 7.28976 6.35356 7.32827 6.49984 7.32827C6.64612 7.32827 6.78982 7.28976 6.9165 7.21662L8.99984 6.05829L11.0915 7.22496C11.216 7.29554 11.3567 7.33285 11.4998 7.33329C11.7208 7.33329 11.9328 7.24549 12.0891 7.08921C12.2454 6.93293 12.3332 6.72097 12.3332 6.49996V2.33329H14.8332C15.0542 2.33329 15.2661 2.42109 15.4224 2.57737C15.5787 2.73365 15.6665 2.94561 15.6665 3.16663V14.8333Z" fill="#546EDB"/>
</svg>
