<svg width="18" height="18" viewBox="0 0 18 18" fill="none" xmlns="http://www.w3.org/2000/svg">
<path d="M13.7249 0.953125H4.2749C3.28034 0.953125 2.32651 1.34821 1.62325 2.05147C0.91999 2.75474 0.524902 3.70856 0.524902 4.70312V10.225C0.524902 11.2196 0.91999 12.1734 1.62325 12.8766C2.32651 13.5799 3.28034 13.975 4.2749 13.975H6.6124L8.51553 16.7875C8.57292 16.8713 8.64987 16.9398 8.73972 16.9872C8.82956 17.0345 8.92959 17.0593 9.03115 17.0593C9.13271 17.0593 9.23274 17.0345 9.32259 16.9872C9.41243 16.9398 9.48938 16.8713 9.54678 16.7875L11.4499 13.975H13.7249C14.7195 13.975 15.6733 13.5799 16.3766 12.8766C17.0798 12.1734 17.4749 11.2196 17.4749 10.225V4.70312C17.4749 3.70856 17.0798 2.75474 16.3766 2.05147C15.6733 1.34821 14.7195 0.953125 13.7249 0.953125ZM9.47178 11.5C9.44427 11.5302 9.41273 11.5565 9.37803 11.5781C9.34402 11.6021 9.30731 11.6221 9.26865 11.6375C9.23166 11.6536 9.19283 11.6652 9.15303 11.6719C9.11253 11.6765 9.07164 11.6765 9.03115 11.6719C8.94878 11.6708 8.86728 11.6549 8.79053 11.625C8.75286 11.6095 8.71719 11.5896 8.68428 11.5656C8.64958 11.544 8.61803 11.5177 8.59053 11.4875C8.47316 11.3708 8.40685 11.2124 8.40615 11.0469C8.40153 11.0064 8.40153 10.9655 8.40615 10.925C8.41284 10.8852 8.42439 10.8464 8.44053 10.8094C8.4553 10.7704 8.47527 10.7336 8.4999 10.7C8.55398 10.6437 8.61742 10.5971 8.6874 10.5625C8.72105 10.5397 8.7566 10.5198 8.79365 10.5031C8.83221 10.4884 8.87193 10.4769 8.9124 10.4688C9.01307 10.449 9.11704 10.4544 9.21513 10.4844C9.31323 10.5144 9.40245 10.568 9.4749 10.6406C9.50425 10.669 9.53044 10.7004 9.55303 10.7344C9.57547 10.7688 9.59432 10.8055 9.60928 10.8438C9.62503 10.8812 9.63758 10.9198 9.64678 10.9594C9.64985 10.9999 9.64985 11.0407 9.64678 11.0813C9.64297 11.2378 9.58052 11.3873 9.47178 11.5ZM9.9374 8.5625L9.7874 8.69688C9.70154 8.8494 9.65735 9.02185 9.65928 9.19688C9.65928 9.36264 9.59343 9.52161 9.47622 9.63882C9.35901 9.75603 9.20004 9.82188 9.03428 9.82188C8.86852 9.82188 8.70955 9.75603 8.59233 9.63882C8.47512 9.52161 8.40928 9.36264 8.40928 9.19688C8.40126 8.69282 8.57674 8.20303 8.90303 7.81875C8.95303 7.76875 9.01865 7.70937 9.09678 7.6375C9.48428 7.29062 10.2843 6.56562 10.2843 5.7625C10.2953 5.59549 10.2706 5.42804 10.2117 5.27138C10.1527 5.11471 10.061 4.97244 9.94269 4.85409C9.82434 4.73573 9.68207 4.64403 9.5254 4.58512C9.36873 4.52621 9.20129 4.50145 9.03428 4.5125C8.86727 4.50145 8.69982 4.52621 8.54316 4.58512C8.38649 4.64403 8.24422 4.73573 8.12586 4.85409C8.00751 4.97244 7.91581 5.11471 7.8569 5.27138C7.79799 5.42804 7.77323 5.59549 7.78428 5.7625C7.78428 5.92826 7.71843 6.08723 7.60122 6.20444C7.48401 6.32165 7.32504 6.3875 7.15928 6.3875C6.99352 6.3875 6.83455 6.32165 6.71733 6.20444C6.60012 6.08723 6.53428 5.92826 6.53428 5.7625C6.52341 5.43126 6.58064 5.10131 6.70243 4.79308C6.82422 4.48485 7.00798 4.2049 7.24233 3.97055C7.47667 3.7362 7.75663 3.55244 8.06486 3.43065C8.37309 3.30886 8.70304 3.25163 9.03428 3.2625C9.36552 3.25163 9.69547 3.30886 10.0037 3.43065C10.3119 3.55244 10.5919 3.7362 10.8262 3.97055C11.0606 4.2049 11.2443 4.48485 11.3661 4.79308C11.4879 5.10131 11.5451 5.43126 11.5343 5.7625C11.5312 7.125 10.453 8.09375 9.9374 8.5625Z" fill="#546EDB"/>
</svg>
