<svg width="24" height="24" viewBox="0 0 24 24" fill="none" xmlns="http://www.w3.org/2000/svg">
<path  d="M5.49322 13.0297H1.6411C1.51251 13.0297 1.38919 13.0807 1.29826 13.1717C1.20733 13.2626 1.15625 13.3859 1.15625 13.5145V20.4018C1.15625 20.5304 1.20733 20.6537 1.29826 20.7446C1.38919 20.8355 1.51251 20.8866 1.6411 20.8866H5.49322C5.62181 20.8866 5.74513 20.8355 5.83606 20.7446C5.92699 20.6537 5.97807 20.5304 5.97807 20.4018V13.5145C5.97807 13.3859 5.92699 13.2626 5.83606 13.1717C5.74513 13.0807 5.62181 13.0297 5.49322 13.0297ZM1.88352 17.6697C1.88352 17.5363 1.99261 17.4272 2.12595 17.4272C2.25928 17.4272 2.36837 17.5363 2.36837 17.6697V18.4357C2.36837 18.5691 2.25928 18.6781 2.12595 18.6781C1.99261 18.6781 1.88352 18.5691 1.88352 18.4357V17.6697ZM3.36231 20.1594H2.12595C1.99261 20.1594 1.88352 20.0503 1.88352 19.9169V19.2091C1.88352 19.0733 1.99261 18.9666 2.12595 18.9666C2.25928 18.9666 2.36837 19.0733 2.36837 19.2091V19.6745H3.36231C3.49807 19.6745 3.60474 19.7836 3.60474 19.9169C3.60474 20.0503 3.49807 20.1594 3.36231 20.1594ZM3.45686 15.5727C3.00352 15.5727 2.63504 15.2042 2.63504 14.746C2.63504 14.2903 3.00352 13.9169 3.45686 13.9169C3.90777 13.9169 4.27867 14.2903 4.27867 14.746C4.27867 15.2042 3.90777 15.5727 3.45686 15.5727V15.5727ZM21.0156 15.7278C14.1696 18.7994 14.7514 18.5327 14.4653 18.5327H10.2859C10.1502 18.5327 10.0435 18.4236 10.0435 18.2903C10.0435 18.1569 10.1502 18.0478 10.2859 18.0478H14.4653C15.0011 18.0478 15.4375 17.6091 15.4375 17.066C15.4375 16.523 15.0011 16.0818 14.4653 16.0818H11.6411C9.19746 16.0818 8.6908 14.7169 6.46292 14.6709V19.5169L9.87867 20.8066C11.8181 21.5431 13.9737 21.42 15.8132 20.4915L21.8253 17.4563C22.0452 17.3448 22.2136 17.1528 22.2954 16.9202C22.3771 16.6876 22.3659 16.4324 22.2641 16.2078C22.1616 15.9791 21.9728 15.8003 21.7389 15.7103C21.505 15.6204 21.2449 15.6267 21.0156 15.7278V15.7278ZM7.45443 6.63984C7.42765 6.62259 7.39773 6.61081 7.36638 6.60517C7.33503 6.59952 7.30288 6.60013 7.27177 6.60696C7.24065 6.61379 7.2112 6.62669 7.18509 6.64494C7.15898 6.66319 7.13674 6.68642 7.11964 6.71329C6.46239 7.73624 6.02761 8.88596 5.84352 10.0878C5.83865 10.1193 5.84003 10.1514 5.84757 10.1824C5.85511 10.2133 5.86868 10.2425 5.88748 10.2682C5.90629 10.2938 5.92998 10.3156 5.95719 10.3321C5.9844 10.3487 6.0146 10.3597 6.04607 10.3646C6.07754 10.3694 6.10966 10.3681 6.1406 10.3605C6.17153 10.353 6.20068 10.3394 6.22638 10.3206C6.25208 10.3018 6.27382 10.2781 6.29036 10.2509C6.3069 10.2237 6.31792 10.1935 6.3228 10.162C6.49648 9.02683 6.90698 7.94086 7.52764 6.97463C7.56223 6.92054 7.57394 6.85493 7.56022 6.79222C7.54649 6.7295 7.50845 6.67479 7.45443 6.64008V6.63984ZM8.43383 5.69608C8.46599 5.69611 8.49784 5.68974 8.52751 5.67733C8.55719 5.66493 8.5841 5.64675 8.60667 5.62384C8.81807 5.40905 9.04304 5.20396 9.27552 5.01414C10.518 3.99819 12.0302 3.36734 13.6263 3.19911C13.658 3.19575 13.6886 3.1862 13.7166 3.17098C13.7445 3.15577 13.7692 3.1352 13.7892 3.11045C13.8092 3.0857 13.8241 3.05725 13.8331 3.02673C13.8422 2.99621 13.8451 2.96421 13.8417 2.93257C13.8383 2.90092 13.8288 2.87025 13.8136 2.8423C13.7984 2.81435 13.7778 2.78967 13.753 2.76967C13.7283 2.74967 13.6998 2.73474 13.6693 2.72573C13.6388 2.71672 13.6068 2.71382 13.5752 2.71717C11.8854 2.89506 10.2844 3.56292 8.9691 4.63863C8.72159 4.84064 8.4852 5.0559 8.26098 5.28348C8.22741 5.31753 8.20466 5.36075 8.1956 5.4077C8.18653 5.45464 8.19155 5.50323 8.21003 5.54733C8.2285 5.59143 8.25961 5.62908 8.29943 5.65555C8.33925 5.68202 8.38601 5.69612 8.43383 5.69608V5.69608Z" fill="#546EDB"/>
<path d="M22.6232 11.1703L21.1614 11.0151C21.0114 10.1197 20.6599 9.27 20.1335 8.53028L21.0547 7.38361C21.0933 7.33683 21.113 7.27726 21.1099 7.21667C21.1068 7.15608 21.081 7.09887 21.0377 7.05634L20.1432 6.16179C20.0559 6.07452 19.9153 6.06725 19.8159 6.14482L18.6693 7.07088C17.9311 6.54432 17.0832 6.19205 16.1893 6.04058L16.0341 4.59331C16.0196 4.45997 15.908 4.35815 15.7723 4.35815H14.5408C14.4074 4.35815 14.2935 4.45997 14.279 4.59331L14.1238 6.04058C13.2123 6.19573 12.3686 6.55452 11.6438 7.07088L10.4971 6.14482C10.4002 6.06725 10.2571 6.07452 10.1699 6.16179L9.27532 7.05634C9.18804 7.14603 9.17835 7.28664 9.25835 7.38361L10.1796 8.53028C9.6632 9.25755 9.30441 10.1012 9.15168 11.0151L7.68986 11.1703C7.56623 11.1824 7.47168 11.2891 7.47168 11.4151V12.6757C7.47168 12.8018 7.56623 12.906 7.68986 12.9206L9.15168 13.0757C9.28986 13.8975 9.59289 14.6588 10.0293 15.3303C10.4729 15.4879 10.9771 15.5969 11.6414 15.5969H14.4656C15.268 15.5969 15.9226 16.2563 15.9226 17.066C15.9226 17.2188 15.8983 17.3642 15.8571 17.5024C16.7177 17.1242 18.0705 16.5157 20.1529 15.5824L20.1335 15.5582C20.6499 14.8333 21.0086 13.9897 21.1614 13.0757L22.6232 12.9206C22.7493 12.906 22.8438 12.8018 22.8438 12.6757V11.4151C22.8438 11.2891 22.7493 11.1824 22.6232 11.1703V11.1703ZM13.5827 7.59428C14.0269 7.43713 14.4922 7.34756 14.9631 7.32858C15.0947 7.31646 15.2096 7.42676 15.2152 7.56082C15.2178 7.62505 15.1948 7.68769 15.1513 7.73497C15.1077 7.78225 15.0472 7.8103 14.983 7.81294C14.5605 7.82999 14.1429 7.91024 13.7442 8.051C13.7142 8.06164 13.6824 8.06624 13.6506 8.06456C13.6188 8.06288 13.5876 8.05495 13.5589 8.04121C13.5302 8.02747 13.5045 8.0082 13.4832 7.98451C13.462 7.96081 13.4456 7.93316 13.4351 7.90312C13.4245 7.87314 13.4199 7.84135 13.4216 7.8096C13.4233 7.77784 13.4312 7.74672 13.445 7.71804C13.4587 7.68935 13.478 7.66366 13.5016 7.64242C13.5253 7.62118 13.5529 7.60482 13.583 7.59428H13.5827ZM10.9204 12.1099C10.9221 12.1334 10.9236 12.1572 10.9243 12.1812C10.926 12.2454 10.9023 12.3077 10.8582 12.3545C10.8142 12.4012 10.7534 12.4286 10.6891 12.4306H10.6819C10.6188 12.4307 10.5582 12.4061 10.513 12.3622C10.4677 12.3183 10.4413 12.2585 10.4394 12.1955L10.4368 12.1424C10.4343 12.1097 10.4324 12.0769 10.4324 12.0435C10.4324 10.4612 11.2225 8.99161 12.5459 8.11234C12.5724 8.09472 12.6021 8.08249 12.6334 8.07636C12.6646 8.07023 12.6967 8.07031 12.728 8.0766C12.7592 8.08289 12.7888 8.09527 12.8153 8.11303C12.8417 8.13079 12.8644 8.15357 12.882 8.18009C12.8996 8.20661 12.9118 8.23634 12.918 8.26759C12.9241 8.29883 12.924 8.33098 12.9177 8.36219C12.9114 8.3934 12.899 8.42307 12.8813 8.44949C12.8635 8.47592 12.8407 8.49859 12.8142 8.51622C11.6263 9.30531 10.9173 10.6241 10.9173 12.0435C10.9173 12.0658 10.919 12.0879 10.9204 12.1099V12.1099ZM15.1565 15.2745C13.3723 15.2745 11.9274 13.8272 11.9274 12.043C11.9274 10.2588 13.3723 8.81391 15.1565 8.81391C16.9408 8.81391 18.388 10.2588 18.388 12.043C18.388 13.8272 16.9408 15.2745 15.1565 15.2745V15.2745ZM18.5645 15.2127C18.2966 15.4993 17.9939 15.7513 17.6634 15.9628C17.6093 15.9952 17.5446 16.0053 17.4831 15.9909C17.4216 15.9764 17.3682 15.9386 17.3342 15.8854C17.3002 15.8321 17.2883 15.7678 17.3009 15.7059C17.3136 15.6441 17.3499 15.5896 17.4021 15.554C17.6985 15.3645 17.97 15.1387 18.2103 14.8818C18.2321 14.8585 18.2582 14.8398 18.2871 14.8266C18.3161 14.8134 18.3474 14.8061 18.3792 14.805C18.411 14.8039 18.4427 14.8091 18.4725 14.8203C18.5023 14.8315 18.5296 14.8484 18.5529 14.8702C18.5761 14.8919 18.5949 14.918 18.6081 14.947C18.6212 14.9759 18.6286 15.0072 18.6297 15.039C18.6307 15.0708 18.6255 15.1025 18.6144 15.1323C18.6032 15.1621 18.5863 15.1894 18.5645 15.2127V15.2127ZM19.3556 14.0624C19.3275 14.1203 19.2776 14.1646 19.2168 14.1857C19.1561 14.2068 19.0894 14.2028 19.0316 14.1748C18.9737 14.1467 18.9293 14.0968 18.9083 14.036C18.8872 13.9753 18.8911 13.9086 18.9192 13.8508C19.1934 13.2878 19.3352 12.6695 19.3337 12.0432C19.3337 11.4699 19.215 10.9087 18.9805 10.3756C18.9677 10.3465 18.9608 10.3151 18.9601 10.2833C18.9594 10.2515 18.965 10.2199 18.9766 10.1902C18.9881 10.1606 19.0054 10.1335 19.0274 10.1105C19.0494 10.0875 19.0758 10.0691 19.1049 10.0563C19.134 10.0435 19.1654 10.0366 19.1972 10.0359C19.229 10.0353 19.2606 10.0408 19.2903 10.0524C19.3199 10.0639 19.347 10.0812 19.37 10.1032C19.393 10.1252 19.4114 10.1516 19.4242 10.1807C19.6842 10.7672 19.8185 11.4017 19.8186 12.0432C19.8186 12.7502 19.6627 13.4297 19.3556 14.0626V14.0624Z" fill="#546EDB"/>
</svg>
