<svg width="18" height="19" viewBox="0 0 18 19" fill="none" xmlns="http://www.w3.org/2000/svg">
<path d="M7.83863 1.07504C6.35331 1.27004 4.94312 1.84386 3.74364 2.74134C2.54417 3.63882 1.59574 4.82979 0.989553 6.19973C0.383363 7.56968 0.139792 9.07253 0.282256 10.5638C0.42472 12.0551 0.94843 13.4847 1.80303 14.715C2.02395 15.0497 2.12238 15.4504 2.08163 15.8492L1.81483 18.5258C1.80775 18.5969 1.81846 18.6687 1.846 18.7346C1.87353 18.8005 1.91703 18.8586 1.97257 18.9035C2.02812 18.9484 2.09396 18.9788 2.16418 18.992C2.2344 19.0051 2.30679 19.0006 2.37483 18.9788L5.22123 18.0638C5.56073 17.9541 5.92531 17.9484 6.26803 18.0476C7.43063 18.4454 8.66663 18.582 9.88803 18.4476C11.0435 18.3312 12.1642 17.986 13.1848 17.4319C14.2055 16.8778 15.1055 16.1261 15.8326 15.2205C16.5596 14.315 17.0991 13.2737 17.4195 12.1575C17.7399 11.0412 17.8349 9.87236 17.6988 8.71905C17.5628 7.56573 17.1984 6.45105 16.6271 5.44001C16.0557 4.42898 15.2888 3.54183 14.3709 2.8303C13.4531 2.11878 12.4028 1.59712 11.2813 1.29576C10.1598 0.994404 8.98946 0.919373 7.83863 1.07504V1.07504ZM4.69863 5.64404C5.1268 5.24056 5.69291 5.01585 6.28123 5.01585C6.86956 5.01585 7.43567 5.24056 7.86383 5.64404C8.28338 6.06607 8.51887 6.63696 8.51887 7.23205C8.51887 7.82713 8.28338 8.39803 7.86383 8.82005C7.44177 9.23543 6.87252 9.46697 6.28034 9.46411C5.68816 9.46124 5.12117 9.22421 4.70315 8.80476C4.28513 8.38531 4.05003 7.81752 4.04918 7.22534C4.04834 6.63315 4.28181 6.06469 4.69863 5.64404ZM5.49183 14.3058C5.37845 14.419 5.22481 14.4825 5.06463 14.4825C4.90445 14.4825 4.75082 14.419 4.63743 14.3058C4.58122 14.2497 4.53662 14.1831 4.50619 14.1097C4.47576 14.0363 4.4601 13.9577 4.4601 13.8782C4.4601 13.7988 4.47576 13.7202 4.50619 13.6468C4.53662 13.5734 4.58122 13.5068 4.63743 13.4506L12.5064 5.58125C12.6193 5.46833 12.7723 5.40468 12.932 5.40419C13.0917 5.4037 13.245 5.46642 13.3586 5.57864L13.3628 5.58265C13.4195 5.63868 13.4646 5.70538 13.4955 5.7789C13.5263 5.85242 13.5423 5.93132 13.5425 6.01105C13.5427 6.09077 13.5272 6.16976 13.4968 6.24345C13.4663 6.31715 13.4216 6.38409 13.3652 6.44045L5.49183 14.3058ZM13.3064 14.26C12.9927 14.5729 12.5934 14.7857 12.1588 14.8716C11.7242 14.9576 11.2739 14.9129 10.8648 14.743C10.4556 14.5732 10.106 14.286 9.85997 13.9175C9.61398 13.5491 9.4827 13.116 9.4827 12.673C9.4827 12.23 9.61398 11.797 9.85997 11.4286C10.106 11.0601 10.4556 10.7729 10.8648 10.6031C11.2739 10.4332 11.7242 10.3885 12.1588 10.4744C12.5934 10.5604 12.9927 10.7732 13.3064 11.086C13.5154 11.2942 13.6811 11.5415 13.7943 11.8138C13.9074 12.0862 13.9656 12.3782 13.9656 12.673C13.9656 12.9679 13.9074 13.2599 13.7943 13.5323C13.6811 13.8046 13.5154 14.0519 13.3064 14.26Z" fill="#546EDB"/>
</svg>
