<svg width="24" height="16" viewBox="0 0 24 16" fill="none" xmlns="http://www.w3.org/2000/svg">
<path d="M2.28571 0C1.02934 0 0 1.02934 0 2.28571V13.7143C0 14.9707 1.02934 16 2.28571 16H21.1429C22.3992 16 23.4286 14.9707 23.4286 13.7143V2.28571C23.4286 1.02934 22.3992 0 21.1429 0H2.28571ZM2.28571 1.14286H21.1429C21.308 1.14286 21.458 1.1812 21.5982 1.24109L12.4286 9.42857C11.9954 9.81537 11.4518 9.81543 11.0179 9.42857L1.83034 1.24109C1.97054 1.1812 2.1206 1.14286 2.28571 1.14286ZM1.15177 2.16966L7.7232 8.0268L1.26786 14.2321C1.19237 14.0784 1.14286 13.9009 1.14286 13.7143V2.28571C1.14286 2.24571 1.148 2.20846 1.15171 2.16966H1.15177ZM22.2768 2.16966C22.2805 2.20846 22.2857 2.24571 22.2857 2.28571V13.7143C22.2857 13.9009 22.2361 14.0784 22.1607 14.2321L15.7231 8.01786L22.2767 2.16966H22.2768ZM14.8661 8.78572L21.1697 14.8571C21.1605 14.8573 21.1519 14.8571 21.1428 14.8571H2.28566C2.27651 14.8571 2.26794 14.8573 2.2588 14.8571L8.58023 8.79463L10.2588 10.2857C11.0948 11.0311 12.3516 11.0321 13.1874 10.2857L14.8659 8.78572H14.8661Z" fill="#414253"/>
</svg>
