<svg width="18" height="18" viewBox="0 0 18 18" fill="none" xmlns="http://www.w3.org/2000/svg">
<path d="M5 0H3C2.60618 6.3958e-05 2.21626 0.077926 1.85261 0.229114C1.48897 0.380303 1.15878 0.601839 0.881 0.881C0.601839 1.15878 0.380303 1.48897 0.229114 1.85261C0.077926 2.21626 6.3958e-05 2.60618 0 3V5C0 5.825 0.337 6.575 0.881 7.119C1.15878 7.39816 1.48897 7.6197 1.85261 7.77089C2.21626 7.92207 2.60618 7.99994 3 8H5C5.39382 7.99994 5.78375 7.92207 6.14739 7.77089C6.51103 7.6197 6.84122 7.39816 7.119 7.119C7.39816 6.84122 7.6197 6.51103 7.77089 6.14739C7.92207 5.78375 7.99994 5.39382 8 5V3C7.99994 2.60618 7.92207 2.21626 7.77089 1.85261C7.6197 1.48897 7.39816 1.15878 7.119 0.881C6.84122 0.601839 6.51103 0.380303 6.14739 0.229114C5.78375 0.077926 5.39382 6.3958e-05 5 0ZM15 0H13C12.6062 6.3958e-05 12.2163 0.077926 11.8526 0.229114C11.489 0.380303 11.1588 0.601839 10.881 0.881C10.6018 1.15878 10.3803 1.48897 10.2291 1.85261C10.0779 2.21626 10.0001 2.60618 10 3V5C10 5.825 10.337 6.575 10.881 7.119C11.1588 7.39816 11.489 7.6197 11.8526 7.77089C12.2163 7.92207 12.6062 7.99994 13 8H15C15.3938 7.99994 15.7837 7.92207 16.1474 7.77089C16.511 7.6197 16.8412 7.39816 17.119 7.119C17.3982 6.84122 17.6197 6.51103 17.7709 6.14739C17.9221 5.78375 17.9999 5.39382 18 5V3C17.9999 2.60618 17.9221 2.21626 17.7709 1.85261C17.6197 1.48897 17.3982 1.15878 17.119 0.881C16.8412 0.601839 16.511 0.380303 16.1474 0.229114C15.7837 0.077926 15.3938 6.3958e-05 15 0ZM5 10H3C2.60618 10.0001 2.21626 10.0779 1.85261 10.2291C1.48897 10.3803 1.15878 10.6018 0.881 10.881C0.601839 11.1588 0.380303 11.489 0.229114 11.8526C0.077926 12.2163 6.3958e-05 12.6062 0 13V15C0 15.825 0.337 16.575 0.881 17.119C1.15878 17.3982 1.48897 17.6197 1.85261 17.7709C2.21626 17.9221 2.60618 17.9999 3 18H5C5.39382 17.9999 5.78375 17.9221 6.14739 17.7709C6.51103 17.6197 6.84122 17.3982 7.119 17.119C7.39816 16.8412 7.6197 16.511 7.77089 16.1474C7.92207 15.7837 7.99994 15.3938 8 15V13C7.99994 12.6062 7.92207 12.2163 7.77089 11.8526C7.6197 11.489 7.39816 11.1588 7.119 10.881C6.84122 10.6018 6.51103 10.3803 6.14739 10.2291C5.78375 10.0779 5.39382 10.0001 5 10ZM15 10H13C12.6062 10.0001 12.2163 10.0779 11.8526 10.2291C11.489 10.3803 11.1588 10.6018 10.881 10.881C10.6018 11.1588 10.3803 11.489 10.2291 11.8526C10.0779 12.2163 10.0001 12.6062 10 13V15C10 15.825 10.337 16.575 10.881 17.119C11.1588 17.3982 11.489 17.6197 11.8526 17.7709C12.2163 17.9221 12.6062 17.9999 13 18H15C15.3938 17.9999 15.7837 17.9221 16.1474 17.7709C16.511 17.6197 16.8412 17.3982 17.119 17.119C17.3982 16.8412 17.6197 16.511 17.7709 16.1474C17.9221 15.7837 17.9999 15.3938 18 15V13C17.9999 12.6062 17.9221 12.2163 17.7709 11.8526C17.6197 11.489 17.3982 11.1588 17.119 10.881C16.8412 10.6018 16.511 10.3803 16.1474 10.2291C15.7837 10.0779 15.3938 10.0001 15 10Z" fill="white"/>
</svg>
